<svg width="63" height="95" viewBox="0 0 63 95" fill="none" xmlns="http://www.w3.org/2000/svg">
<path fill-rule="evenodd" clip-rule="evenodd" d="M3.25173 8.48299C1.8071 7.03835 1.8071 4.69613 3.25174 3.25149V3.25149C4.69637 1.80685 7.03859 1.80685 8.48323 3.25149L28.9896 23.7578C30.5517 25.3199 33.0843 25.3199 34.6464 23.7578L55.1527 3.25149C56.5974 1.80685 58.9396 1.80685 60.3842 3.25149V3.25149C61.8289 4.69613 61.8289 7.03835 60.3843 8.48299L34.6464 34.2208C33.0843 35.7829 30.5517 35.7829 28.9896 34.2208L3.25173 8.48299Z" fill="black"/>
<path fill-rule="evenodd" clip-rule="evenodd" d="M3.25173 37.0494C1.8071 35.6048 1.8071 33.2625 3.25174 31.8179V31.8179C4.69637 30.3733 7.03859 30.3733 8.48323 31.8179L28.9896 52.3242C30.5517 53.8863 33.0843 53.8863 34.6464 52.3242L55.1527 31.8179C56.5974 30.3733 58.9396 30.3733 60.3842 31.8179V31.8179C61.8289 33.2625 61.8289 35.6048 60.3843 37.0494L34.6464 62.7872C33.0843 64.3493 30.5517 64.3493 28.9896 62.7872L3.25173 37.0494Z" fill="#726E6E"/>
<path fill-rule="evenodd" clip-rule="evenodd" d="M3.25173 65.6158C1.8071 64.1712 1.8071 61.8289 3.25174 60.3843V60.3843C4.69637 58.9397 7.03859 58.9397 8.48323 60.3843L28.9896 80.8906C30.5517 82.4527 33.0843 82.4527 34.6464 80.8906L55.1527 60.3843C56.5974 58.9397 58.9396 58.9397 60.3842 60.3843V60.3843C61.8289 61.8289 61.8289 64.1712 60.3843 65.6158L34.6464 91.3536C33.0843 92.9157 30.5517 92.9157 28.9896 91.3536L3.25173 65.6158Z" fill="#B4B4B4"/>
</svg>
