<svg width="1054" height="10" viewBox="0 0 1054 10" fill="none" xmlns="http://www.w3.org/2000/svg">
<path d="M74.937 2.88001V2.01601H78.417C79.153 2.01601 79.729 2.20801 80.145 2.59201C80.561 2.97601 80.769 3.56801 80.769 4.36801V8.06401C80.769 8.33601 80.681 8.56001 80.505 8.73601C80.337 8.91201 80.117 9.00001 79.845 9.00001H78.885C78.589 9.00001 78.373 8.92401 78.237 8.77201C78.101 8.61201 78.033 8.42401 78.033 8.20801H77.889C77.793 8.51201 77.629 8.74801 77.397 8.91601C77.173 9.08401 76.873 9.16801 76.497 9.16801C76.201 9.16801 75.929 9.10801 75.681 8.98801C75.433 8.86801 75.217 8.69601 75.033 8.47201C74.857 8.24801 74.717 7.97601 74.613 7.65601C74.509 7.32801 74.457 6.96401 74.457 6.56401V6.34801C74.457 5.94801 74.509 5.58801 74.613 5.26801C74.717 4.94801 74.857 4.67601 75.033 4.45201C75.217 4.22001 75.433 4.04401 75.681 3.92401C75.929 3.80401 76.193 3.74401 76.473 3.74401C76.841 3.74401 77.121 3.81601 77.313 3.96001C77.513 4.09601 77.681 4.29601 77.817 4.56001H77.961V3.91201H78.897V7.77601C78.897 8.01601 79.005 8.13601 79.221 8.13601H79.509C79.725 8.13601 79.833 8.01601 79.833 7.77601V4.46401C79.833 3.94401 79.709 3.55201 79.461 3.28801C79.221 3.01601 78.841 2.88001 78.321 2.88001H74.937ZM76.677 8.28001C76.917 8.28001 77.117 8.23601 77.277 8.14801C77.445 8.06001 77.577 7.94001 77.673 7.78801C77.777 7.62801 77.849 7.44401 77.889 7.23601C77.937 7.02801 77.961 6.80401 77.961 6.56401V6.34801C77.961 6.12401 77.937 5.90801 77.889 5.70001C77.849 5.49201 77.777 5.30801 77.673 5.14801C77.577 4.98801 77.445 4.86401 77.277 4.77601C77.117 4.68001 76.917 4.63201 76.677 4.63201C76.477 4.63201 76.297 4.67601 76.137 4.76401C75.977 4.85201 75.841 4.97601 75.729 5.13601C75.625 5.28801 75.541 5.46801 75.477 5.67601C75.421 5.88401 75.393 6.10801 75.393 6.34801V6.56401C75.393 7.06801 75.505 7.48001 75.729 7.80001C75.953 8.12001 76.269 8.28001 76.677 8.28001Z" fill="black"/>
<path d="M82.4767 0.600007H87.5647V1.53601H83.4847V4.32001H87.4927V5.25601H83.4847V8.06401H87.6367V9.00001H82.4767V0.600007Z" fill="black"/>
<path d="M94.1683 6.91201H90.5683L89.9563 9.00001H88.8763L91.4203 0.600007H93.3163L95.8603 9.00001H94.7803L94.1683 6.91201ZM92.2963 1.03201L90.8443 5.97601H93.8923L92.4403 1.03201H92.2963Z" fill="black"/>
<path d="M96.764 0.600007H102.668V1.53601H100.22V9.00001H99.212V1.53601H96.764V0.600007Z" fill="black"/>
<path d="M103.944 0.600007H105.864L106.992 8.56801H107.136L108.264 0.600007H110.184V9.00001H109.248V1.03201H109.104L107.976 9.00001H106.152L105.024 1.03201H104.88V9.00001H103.944V0.600007Z" fill="black"/>
<path d="M112.539 0.600007V6.16801C112.539 6.84801 112.695 7.36401 113.007 7.71601C113.327 8.06001 113.795 8.23201 114.411 8.23201C115.027 8.23201 115.491 8.06001 115.803 7.71601C116.123 7.36401 116.283 6.84801 116.283 6.16801V0.600007H117.291V6.16801C117.291 7.14401 117.035 7.88801 116.523 8.40001C116.011 8.91201 115.307 9.16801 114.411 9.16801C113.515 9.16801 112.811 8.91201 112.299 8.40001C111.787 7.88801 111.531 7.14401 111.531 6.16801V0.600007H112.539Z" fill="black"/>
<path d="M123.403 8.56801H123.547V0.600007H124.555V9.00001H122.539L120.115 1.03201H119.971V9.00001H118.963V0.600007H120.979L123.403 8.56801Z" fill="black"/>
<path d="M129.155 8.23201C129.499 8.23201 129.791 8.17601 130.031 8.06401C130.279 7.94401 130.479 7.78801 130.631 7.59601C130.791 7.39601 130.907 7.17201 130.979 6.92401C131.059 6.66801 131.099 6.40001 131.099 6.12001V5.97601H132.107V6.12001C132.107 6.54401 132.043 6.94401 131.915 7.32001C131.787 7.68801 131.599 8.01201 131.351 8.29201C131.103 8.56401 130.795 8.78001 130.427 8.94001C130.059 9.09201 129.635 9.16801 129.155 9.16801C128.227 9.16801 127.503 8.87601 126.983 8.29201C126.463 7.70801 126.203 6.85601 126.203 5.73601V3.86401C126.203 2.77601 126.463 1.93201 126.983 1.33201C127.503 0.732007 128.227 0.432007 129.155 0.432007C129.635 0.432007 130.059 0.512007 130.427 0.672008C130.795 0.824008 131.103 1.04001 131.351 1.32001C131.599 1.59201 131.787 1.91601 131.915 2.29201C132.043 2.66001 132.107 3.05601 132.107 3.48001V3.62401H131.099V3.48001C131.091 3.20801 131.047 2.94401 130.967 2.68801C130.895 2.43201 130.779 2.20801 130.619 2.01601C130.467 1.81601 130.271 1.66001 130.031 1.54801C129.791 1.42801 129.499 1.36801 129.155 1.36801C128.507 1.36801 128.019 1.60401 127.691 2.07601C127.371 2.54801 127.211 3.16801 127.211 3.93601V5.66401C127.211 6.48801 127.371 7.12401 127.691 7.57201C128.019 8.01201 128.507 8.23201 129.155 8.23201Z" fill="black"/>
<path d="M133.658 0.600007H134.666V4.32001H138.242V0.600007H139.25V9.00001H138.242V5.25601H134.666V9.00001H133.658V0.600007Z" fill="black"/>
<path d="M143.298 6.04801H143.082L140.454 0.600007H141.582L143.73 5.18401H143.874L146.022 0.600007H147.15L144.522 6.04801H144.306V9.00001H143.298V6.04801Z" fill="black"/>
<path d="M0.832031 5.32804C0.832031 5.09604 0.912031 4.90004 1.07203 4.74004C1.24003 4.57204 1.44003 4.48804 1.67203 4.48804C1.90403 4.48804 2.10003 4.57204 2.26003 4.74004C2.42803 4.90004 2.51203 5.09604 2.51203 5.32804C2.51203 5.56004 2.42803 5.76004 2.26003 5.92804C2.10003 6.08804 1.90403 6.16804 1.67203 6.16804C1.44003 6.16804 1.24003 6.08804 1.07203 5.92804C0.912031 5.76004 0.832031 5.56004 0.832031 5.32804Z" fill="black"/>
<path d="M8.17969 5.32804C8.17969 5.09604 8.25969 4.90004 8.41969 4.74004C8.58769 4.57204 8.78769 4.48804 9.01969 4.48804C9.25169 4.48804 9.44769 4.57204 9.60769 4.74004C9.77569 4.90004 9.85969 5.09604 9.85969 5.32804C9.85969 5.56004 9.77569 5.76004 9.60769 5.92804C9.44769 6.08804 9.25169 6.16804 9.01969 6.16804C8.78769 6.16804 8.58769 6.08804 8.41969 5.92804C8.25969 5.76004 8.17969 5.56004 8.17969 5.32804Z" fill="black"/>
<path d="M15.5273 5.32804C15.5273 5.09604 15.6073 4.90004 15.7673 4.74004C15.9353 4.57204 16.1353 4.48804 16.3673 4.48804C16.5993 4.48804 16.7953 4.57204 16.9553 4.74004C17.1233 4.90004 17.2073 5.09604 17.2073 5.32804C17.2073 5.56004 17.1233 5.76004 16.9553 5.92804C16.7953 6.08804 16.5993 6.16804 16.3673 6.16804C16.1353 6.16804 15.9353 6.08804 15.7673 5.92804C15.6073 5.76004 15.5273 5.56004 15.5273 5.32804Z" fill="black"/>
<path d="M22.875 5.32804C22.875 5.09604 22.955 4.90004 23.115 4.74004C23.283 4.57204 23.483 4.48804 23.715 4.48804C23.947 4.48804 24.143 4.57204 24.303 4.74004C24.471 4.90004 24.555 5.09604 24.555 5.32804C24.555 5.56004 24.471 5.76004 24.303 5.92804C24.143 6.08804 23.947 6.16804 23.715 6.16804C23.483 6.16804 23.283 6.08804 23.115 5.92804C22.955 5.76004 22.875 5.56004 22.875 5.32804Z" fill="black"/>
<path d="M30.2227 5.32804C30.2227 5.09604 30.3027 4.90004 30.4627 4.74004C30.6307 4.57204 30.8307 4.48804 31.0627 4.48804C31.2947 4.48804 31.4907 4.57204 31.6507 4.74004C31.8187 4.90004 31.9027 5.09604 31.9027 5.32804C31.9027 5.56004 31.8187 5.76004 31.6507 5.92804C31.4907 6.08804 31.2947 6.16804 31.0627 6.16804C30.8307 6.16804 30.6307 6.08804 30.4627 5.92804C30.3027 5.76004 30.2227 5.56004 30.2227 5.32804Z" fill="black"/>
<path d="M37.5703 5.32804C37.5703 5.09604 37.6503 4.90004 37.8103 4.74004C37.9783 4.57204 38.1783 4.48804 38.4103 4.48804C38.6423 4.48804 38.8383 4.57204 38.9983 4.74004C39.1663 4.90004 39.2503 5.09604 39.2503 5.32804C39.2503 5.56004 39.1663 5.76004 38.9983 5.92804C38.8383 6.08804 38.6423 6.16804 38.4103 6.16804C38.1783 6.16804 37.9783 6.08804 37.8103 5.92804C37.6503 5.76004 37.5703 5.56004 37.5703 5.32804Z" fill="black"/>
<path d="M44.918 5.32804C44.918 5.09604 44.998 4.90004 45.158 4.74004C45.326 4.57204 45.526 4.48804 45.758 4.48804C45.99 4.48804 46.186 4.57204 46.346 4.74004C46.514 4.90004 46.598 5.09604 46.598 5.32804C46.598 5.56004 46.514 5.76004 46.346 5.92804C46.186 6.08804 45.99 6.16804 45.758 6.16804C45.526 6.16804 45.326 6.08804 45.158 5.92804C44.998 5.76004 44.918 5.56004 44.918 5.32804Z" fill="black"/>
<path d="M52.2656 5.32804C52.2656 5.09604 52.3456 4.90004 52.5056 4.74004C52.6736 4.57204 52.8736 4.48804 53.1056 4.48804C53.3376 4.48804 53.5336 4.57204 53.6936 4.74004C53.8616 4.90004 53.9456 5.09604 53.9456 5.32804C53.9456 5.56004 53.8616 5.76004 53.6936 5.92804C53.5336 6.08804 53.3376 6.16804 53.1056 6.16804C52.8736 6.16804 52.6736 6.08804 52.5056 5.92804C52.3456 5.76004 52.2656 5.56004 52.2656 5.32804Z" fill="black"/>
<path d="M59.6133 5.32804C59.6133 5.09604 59.6933 4.90004 59.8533 4.74004C60.0213 4.57204 60.2213 4.48804 60.4533 4.48804C60.6853 4.48804 60.8813 4.57204 61.0413 4.74004C61.2093 4.90004 61.2933 5.09604 61.2933 5.32804C61.2933 5.56004 61.2093 5.76004 61.0413 5.92804C60.8813 6.08804 60.6853 6.16804 60.4533 6.16804C60.2213 6.16804 60.0213 6.08804 59.8533 5.92804C59.6933 5.76004 59.6133 5.56004 59.6133 5.32804Z" fill="black"/>
<path d="M66.9609 5.32804C66.9609 5.09604 67.0409 4.90004 67.2009 4.74004C67.3689 4.57204 67.5689 4.48804 67.8009 4.48804C68.0329 4.48804 68.2289 4.57204 68.3889 4.74004C68.5569 4.90004 68.6409 5.09604 68.6409 5.32804C68.6409 5.56004 68.5569 5.76004 68.3889 5.92804C68.2289 6.08804 68.0329 6.16804 67.8009 6.16804C67.5689 6.16804 67.3689 6.08804 67.2009 5.92804C67.0409 5.76004 66.9609 5.56004 66.9609 5.32804Z" fill="black"/>
<path d="M225.937 2.88001V2.01601H229.417C230.153 2.01601 230.729 2.20801 231.145 2.59201C231.561 2.97601 231.769 3.56801 231.769 4.36801V8.06401C231.769 8.33601 231.681 8.56001 231.505 8.73601C231.337 8.91201 231.117 9.00001 230.845 9.00001H229.885C229.589 9.00001 229.373 8.92401 229.237 8.77201C229.101 8.61201 229.033 8.42401 229.033 8.20801H228.889C228.793 8.51201 228.629 8.74801 228.397 8.91601C228.173 9.08401 227.873 9.16801 227.497 9.16801C227.201 9.16801 226.929 9.10801 226.681 8.98801C226.433 8.86801 226.217 8.69601 226.033 8.47201C225.857 8.24801 225.717 7.97601 225.613 7.65601C225.509 7.32801 225.457 6.96401 225.457 6.56401V6.34801C225.457 5.94801 225.509 5.58801 225.613 5.26801C225.717 4.94801 225.857 4.67601 226.033 4.45201C226.217 4.22001 226.433 4.04401 226.681 3.92401C226.929 3.80401 227.193 3.74401 227.473 3.74401C227.841 3.74401 228.121 3.81601 228.313 3.96001C228.513 4.09601 228.681 4.29601 228.817 4.56001H228.961V3.91201H229.897V7.77601C229.897 8.01601 230.005 8.13601 230.221 8.13601H230.509C230.725 8.13601 230.833 8.01601 230.833 7.77601V4.46401C230.833 3.94401 230.709 3.55201 230.461 3.28801C230.221 3.01601 229.841 2.88001 229.321 2.88001H225.937ZM227.677 8.28001C227.917 8.28001 228.117 8.23601 228.277 8.14801C228.445 8.06001 228.577 7.94001 228.673 7.78801C228.777 7.62801 228.849 7.44401 228.889 7.23601C228.937 7.02801 228.961 6.80401 228.961 6.56401V6.34801C228.961 6.12401 228.937 5.90801 228.889 5.70001C228.849 5.49201 228.777 5.30801 228.673 5.14801C228.577 4.98801 228.445 4.86401 228.277 4.77601C228.117 4.68001 227.917 4.63201 227.677 4.63201C227.477 4.63201 227.297 4.67601 227.137 4.76401C226.977 4.85201 226.841 4.97601 226.729 5.13601C226.625 5.28801 226.541 5.46801 226.477 5.67601C226.421 5.88401 226.393 6.10801 226.393 6.34801V6.56401C226.393 7.06801 226.505 7.48001 226.729 7.80001C226.953 8.12001 227.269 8.28001 227.677 8.28001Z" fill="black"/>
<path d="M233.477 0.600007H238.565V1.53601H234.485V4.32001H238.493V5.25601H234.485V8.06401H238.637V9.00001H233.477V0.600007Z" fill="black"/>
<path d="M245.168 6.91201H241.568L240.956 9.00001H239.876L242.42 0.600007H244.316L246.86 9.00001H245.78L245.168 6.91201ZM243.296 1.03201L241.844 5.97601H244.892L243.44 1.03201H243.296Z" fill="black"/>
<path d="M247.764 0.600007H253.668V1.53601H251.22V9.00001H250.212V1.53601H247.764V0.600007Z" fill="black"/>
<path d="M254.944 0.600007H256.864L257.992 8.56801H258.136L259.264 0.600007H261.184V9.00001H260.248V1.03201H260.104L258.976 9.00001H257.152L256.024 1.03201H255.88V9.00001H254.944V0.600007Z" fill="black"/>
<path d="M263.539 0.600007V6.16801C263.539 6.84801 263.695 7.36401 264.007 7.71601C264.327 8.06001 264.795 8.23201 265.411 8.23201C266.027 8.23201 266.491 8.06001 266.803 7.71601C267.123 7.36401 267.283 6.84801 267.283 6.16801V0.600007H268.291V6.16801C268.291 7.14401 268.035 7.88801 267.523 8.40001C267.011 8.91201 266.307 9.16801 265.411 9.16801C264.515 9.16801 263.811 8.91201 263.299 8.40001C262.787 7.88801 262.531 7.14401 262.531 6.16801V0.600007H263.539Z" fill="black"/>
<path d="M274.403 8.56801H274.547V0.600007H275.555V9.00001H273.539L271.115 1.03201H270.971V9.00001H269.963V0.600007H271.979L274.403 8.56801Z" fill="black"/>
<path d="M280.155 8.23201C280.499 8.23201 280.791 8.17601 281.031 8.06401C281.279 7.94401 281.479 7.78801 281.631 7.59601C281.791 7.39601 281.907 7.17201 281.979 6.92401C282.059 6.66801 282.099 6.40001 282.099 6.12001V5.97601H283.107V6.12001C283.107 6.54401 283.043 6.94401 282.915 7.32001C282.787 7.68801 282.599 8.01201 282.351 8.29201C282.103 8.56401 281.795 8.78001 281.427 8.94001C281.059 9.09201 280.635 9.16801 280.155 9.16801C279.227 9.16801 278.503 8.87601 277.983 8.29201C277.463 7.70801 277.203 6.85601 277.203 5.73601V3.86401C277.203 2.77601 277.463 1.93201 277.983 1.33201C278.503 0.732007 279.227 0.432007 280.155 0.432007C280.635 0.432007 281.059 0.512007 281.427 0.672008C281.795 0.824008 282.103 1.04001 282.351 1.32001C282.599 1.59201 282.787 1.91601 282.915 2.29201C283.043 2.66001 283.107 3.05601 283.107 3.48001V3.62401H282.099V3.48001C282.091 3.20801 282.047 2.94401 281.967 2.68801C281.895 2.43201 281.779 2.20801 281.619 2.01601C281.467 1.81601 281.271 1.66001 281.031 1.54801C280.791 1.42801 280.499 1.36801 280.155 1.36801C279.507 1.36801 279.019 1.60401 278.691 2.07601C278.371 2.54801 278.211 3.16801 278.211 3.93601V5.66401C278.211 6.48801 278.371 7.12401 278.691 7.57201C279.019 8.01201 279.507 8.23201 280.155 8.23201Z" fill="black"/>
<path d="M284.658 0.600007H285.666V4.32001H289.242V0.600007H290.25V9.00001H289.242V5.25601H285.666V9.00001H284.658V0.600007Z" fill="black"/>
<path d="M294.298 6.04801H294.082L291.454 0.600007H292.582L294.73 5.18401H294.874L297.022 0.600007H298.15L295.522 6.04801H295.306V9.00001H294.298V6.04801Z" fill="black"/>
<path d="M151.832 5.32804C151.832 5.09604 151.912 4.90004 152.072 4.74004C152.24 4.57204 152.44 4.48804 152.672 4.48804C152.904 4.48804 153.1 4.57204 153.26 4.74004C153.428 4.90004 153.512 5.09604 153.512 5.32804C153.512 5.56004 153.428 5.76004 153.26 5.92804C153.1 6.08804 152.904 6.16804 152.672 6.16804C152.44 6.16804 152.24 6.08804 152.072 5.92804C151.912 5.76004 151.832 5.56004 151.832 5.32804Z" fill="black"/>
<path d="M159.18 5.32804C159.18 5.09604 159.26 4.90004 159.42 4.74004C159.588 4.57204 159.788 4.48804 160.02 4.48804C160.252 4.48804 160.448 4.57204 160.608 4.74004C160.776 4.90004 160.86 5.09604 160.86 5.32804C160.86 5.56004 160.776 5.76004 160.608 5.92804C160.448 6.08804 160.252 6.16804 160.02 6.16804C159.788 6.16804 159.588 6.08804 159.42 5.92804C159.26 5.76004 159.18 5.56004 159.18 5.32804Z" fill="black"/>
<path d="M166.527 5.32804C166.527 5.09604 166.607 4.90004 166.767 4.74004C166.935 4.57204 167.135 4.48804 167.367 4.48804C167.599 4.48804 167.795 4.57204 167.955 4.74004C168.123 4.90004 168.207 5.09604 168.207 5.32804C168.207 5.56004 168.123 5.76004 167.955 5.92804C167.795 6.08804 167.599 6.16804 167.367 6.16804C167.135 6.16804 166.935 6.08804 166.767 5.92804C166.607 5.76004 166.527 5.56004 166.527 5.32804Z" fill="black"/>
<path d="M173.875 5.32804C173.875 5.09604 173.955 4.90004 174.115 4.74004C174.283 4.57204 174.483 4.48804 174.715 4.48804C174.947 4.48804 175.143 4.57204 175.303 4.74004C175.471 4.90004 175.555 5.09604 175.555 5.32804C175.555 5.56004 175.471 5.76004 175.303 5.92804C175.143 6.08804 174.947 6.16804 174.715 6.16804C174.483 6.16804 174.283 6.08804 174.115 5.92804C173.955 5.76004 173.875 5.56004 173.875 5.32804Z" fill="black"/>
<path d="M181.223 5.32804C181.223 5.09604 181.303 4.90004 181.463 4.74004C181.631 4.57204 181.831 4.48804 182.063 4.48804C182.295 4.48804 182.491 4.57204 182.651 4.74004C182.819 4.90004 182.903 5.09604 182.903 5.32804C182.903 5.56004 182.819 5.76004 182.651 5.92804C182.491 6.08804 182.295 6.16804 182.063 6.16804C181.831 6.16804 181.631 6.08804 181.463 5.92804C181.303 5.76004 181.223 5.56004 181.223 5.32804Z" fill="black"/>
<path d="M188.57 5.32804C188.57 5.09604 188.65 4.90004 188.81 4.74004C188.978 4.57204 189.178 4.48804 189.41 4.48804C189.642 4.48804 189.838 4.57204 189.998 4.74004C190.166 4.90004 190.25 5.09604 190.25 5.32804C190.25 5.56004 190.166 5.76004 189.998 5.92804C189.838 6.08804 189.642 6.16804 189.41 6.16804C189.178 6.16804 188.978 6.08804 188.81 5.92804C188.65 5.76004 188.57 5.56004 188.57 5.32804Z" fill="black"/>
<path d="M195.918 5.32804C195.918 5.09604 195.998 4.90004 196.158 4.74004C196.326 4.57204 196.526 4.48804 196.758 4.48804C196.99 4.48804 197.186 4.57204 197.346 4.74004C197.514 4.90004 197.598 5.09604 197.598 5.32804C197.598 5.56004 197.514 5.76004 197.346 5.92804C197.186 6.08804 196.99 6.16804 196.758 6.16804C196.526 6.16804 196.326 6.08804 196.158 5.92804C195.998 5.76004 195.918 5.56004 195.918 5.32804Z" fill="black"/>
<path d="M203.266 5.32804C203.266 5.09604 203.346 4.90004 203.506 4.74004C203.674 4.57204 203.874 4.48804 204.106 4.48804C204.338 4.48804 204.534 4.57204 204.694 4.74004C204.862 4.90004 204.946 5.09604 204.946 5.32804C204.946 5.56004 204.862 5.76004 204.694 5.92804C204.534 6.08804 204.338 6.16804 204.106 6.16804C203.874 6.16804 203.674 6.08804 203.506 5.92804C203.346 5.76004 203.266 5.56004 203.266 5.32804Z" fill="black"/>
<path d="M210.613 5.32804C210.613 5.09604 210.693 4.90004 210.853 4.74004C211.021 4.57204 211.221 4.48804 211.453 4.48804C211.685 4.48804 211.881 4.57204 212.041 4.74004C212.209 4.90004 212.293 5.09604 212.293 5.32804C212.293 5.56004 212.209 5.76004 212.041 5.92804C211.881 6.08804 211.685 6.16804 211.453 6.16804C211.221 6.16804 211.021 6.08804 210.853 5.92804C210.693 5.76004 210.613 5.56004 210.613 5.32804Z" fill="black"/>
<path d="M217.961 5.32804C217.961 5.09604 218.041 4.90004 218.201 4.74004C218.369 4.57204 218.569 4.48804 218.801 4.48804C219.033 4.48804 219.229 4.57204 219.389 4.74004C219.557 4.90004 219.641 5.09604 219.641 5.32804C219.641 5.56004 219.557 5.76004 219.389 5.92804C219.229 6.08804 219.033 6.16804 218.801 6.16804C218.569 6.16804 218.369 6.08804 218.201 5.92804C218.041 5.76004 217.961 5.56004 217.961 5.32804Z" fill="black"/>
<path d="M376.937 2.88001V2.01601H380.417C381.153 2.01601 381.729 2.20801 382.145 2.59201C382.561 2.97601 382.769 3.56801 382.769 4.36801V8.06401C382.769 8.33601 382.681 8.56001 382.505 8.73601C382.337 8.91201 382.117 9.00001 381.845 9.00001H380.885C380.589 9.00001 380.373 8.92401 380.237 8.77201C380.101 8.61201 380.033 8.42401 380.033 8.20801H379.889C379.793 8.51201 379.629 8.74801 379.397 8.91601C379.173 9.08401 378.873 9.16801 378.497 9.16801C378.201 9.16801 377.929 9.10801 377.681 8.98801C377.433 8.86801 377.217 8.69601 377.033 8.47201C376.857 8.24801 376.717 7.97601 376.613 7.65601C376.509 7.32801 376.457 6.96401 376.457 6.56401V6.34801C376.457 5.94801 376.509 5.58801 376.613 5.26801C376.717 4.94801 376.857 4.67601 377.033 4.45201C377.217 4.22001 377.433 4.04401 377.681 3.92401C377.929 3.80401 378.193 3.74401 378.473 3.74401C378.841 3.74401 379.121 3.81601 379.313 3.96001C379.513 4.09601 379.681 4.29601 379.817 4.56001H379.961V3.91201H380.897V7.77601C380.897 8.01601 381.005 8.13601 381.221 8.13601H381.509C381.725 8.13601 381.833 8.01601 381.833 7.77601V4.46401C381.833 3.94401 381.709 3.55201 381.461 3.28801C381.221 3.01601 380.841 2.88001 380.321 2.88001H376.937ZM378.677 8.28001C378.917 8.28001 379.117 8.23601 379.277 8.14801C379.445 8.06001 379.577 7.94001 379.673 7.78801C379.777 7.62801 379.849 7.44401 379.889 7.23601C379.937 7.02801 379.961 6.80401 379.961 6.56401V6.34801C379.961 6.12401 379.937 5.90801 379.889 5.70001C379.849 5.49201 379.777 5.30801 379.673 5.14801C379.577 4.98801 379.445 4.86401 379.277 4.77601C379.117 4.68001 378.917 4.63201 378.677 4.63201C378.477 4.63201 378.297 4.67601 378.137 4.76401C377.977 4.85201 377.841 4.97601 377.729 5.13601C377.625 5.28801 377.541 5.46801 377.477 5.67601C377.421 5.88401 377.393 6.10801 377.393 6.34801V6.56401C377.393 7.06801 377.505 7.48001 377.729 7.80001C377.953 8.12001 378.269 8.28001 378.677 8.28001Z" fill="black"/>
<path d="M384.477 0.600007H389.565V1.53601H385.485V4.32001H389.493V5.25601H385.485V8.06401H389.637V9.00001H384.477V0.600007Z" fill="black"/>
<path d="M396.168 6.91201H392.568L391.956 9.00001H390.876L393.42 0.600007H395.316L397.86 9.00001H396.78L396.168 6.91201ZM394.296 1.03201L392.844 5.97601H395.892L394.44 1.03201H394.296Z" fill="black"/>
<path d="M398.764 0.600007H404.668V1.53601H402.22V9.00001H401.212V1.53601H398.764V0.600007Z" fill="black"/>
<path d="M405.944 0.600007H407.864L408.992 8.56801H409.136L410.264 0.600007H412.184V9.00001H411.248V1.03201H411.104L409.976 9.00001H408.152L407.024 1.03201H406.88V9.00001H405.944V0.600007Z" fill="black"/>
<path d="M414.539 0.600007V6.16801C414.539 6.84801 414.695 7.36401 415.007 7.71601C415.327 8.06001 415.795 8.23201 416.411 8.23201C417.027 8.23201 417.491 8.06001 417.803 7.71601C418.123 7.36401 418.283 6.84801 418.283 6.16801V0.600007H419.291V6.16801C419.291 7.14401 419.035 7.88801 418.523 8.40001C418.011 8.91201 417.307 9.16801 416.411 9.16801C415.515 9.16801 414.811 8.91201 414.299 8.40001C413.787 7.88801 413.531 7.14401 413.531 6.16801V0.600007H414.539Z" fill="black"/>
<path d="M425.403 8.56801H425.547V0.600007H426.555V9.00001H424.539L422.115 1.03201H421.971V9.00001H420.963V0.600007H422.979L425.403 8.56801Z" fill="black"/>
<path d="M431.155 8.23201C431.499 8.23201 431.791 8.17601 432.031 8.06401C432.279 7.94401 432.479 7.78801 432.631 7.59601C432.791 7.39601 432.907 7.17201 432.979 6.92401C433.059 6.66801 433.099 6.40001 433.099 6.12001V5.97601H434.107V6.12001C434.107 6.54401 434.043 6.94401 433.915 7.32001C433.787 7.68801 433.599 8.01201 433.351 8.29201C433.103 8.56401 432.795 8.78001 432.427 8.94001C432.059 9.09201 431.635 9.16801 431.155 9.16801C430.227 9.16801 429.503 8.87601 428.983 8.29201C428.463 7.70801 428.203 6.85601 428.203 5.73601V3.86401C428.203 2.77601 428.463 1.93201 428.983 1.33201C429.503 0.732007 430.227 0.432007 431.155 0.432007C431.635 0.432007 432.059 0.512007 432.427 0.672008C432.795 0.824008 433.103 1.04001 433.351 1.32001C433.599 1.59201 433.787 1.91601 433.915 2.29201C434.043 2.66001 434.107 3.05601 434.107 3.48001V3.62401H433.099V3.48001C433.091 3.20801 433.047 2.94401 432.967 2.68801C432.895 2.43201 432.779 2.20801 432.619 2.01601C432.467 1.81601 432.271 1.66001 432.031 1.54801C431.791 1.42801 431.499 1.36801 431.155 1.36801C430.507 1.36801 430.019 1.60401 429.691 2.07601C429.371 2.54801 429.211 3.16801 429.211 3.93601V5.66401C429.211 6.48801 429.371 7.12401 429.691 7.57201C430.019 8.01201 430.507 8.23201 431.155 8.23201Z" fill="black"/>
<path d="M435.658 0.600007H436.666V4.32001H440.242V0.600007H441.25V9.00001H440.242V5.25601H436.666V9.00001H435.658V0.600007Z" fill="black"/>
<path d="M445.298 6.04801H445.082L442.454 0.600007H443.582L445.73 5.18401H445.874L448.022 0.600007H449.15L446.522 6.04801H446.306V9.00001H445.298V6.04801Z" fill="black"/>
<path d="M302.832 5.32804C302.832 5.09604 302.912 4.90004 303.072 4.74004C303.24 4.57204 303.44 4.48804 303.672 4.48804C303.904 4.48804 304.1 4.57204 304.26 4.74004C304.428 4.90004 304.512 5.09604 304.512 5.32804C304.512 5.56004 304.428 5.76004 304.26 5.92804C304.1 6.08804 303.904 6.16804 303.672 6.16804C303.44 6.16804 303.24 6.08804 303.072 5.92804C302.912 5.76004 302.832 5.56004 302.832 5.32804Z" fill="black"/>
<path d="M310.18 5.32804C310.18 5.09604 310.26 4.90004 310.42 4.74004C310.588 4.57204 310.788 4.48804 311.02 4.48804C311.252 4.48804 311.448 4.57204 311.608 4.74004C311.776 4.90004 311.86 5.09604 311.86 5.32804C311.86 5.56004 311.776 5.76004 311.608 5.92804C311.448 6.08804 311.252 6.16804 311.02 6.16804C310.788 6.16804 310.588 6.08804 310.42 5.92804C310.26 5.76004 310.18 5.56004 310.18 5.32804Z" fill="black"/>
<path d="M317.527 5.32804C317.527 5.09604 317.607 4.90004 317.767 4.74004C317.935 4.57204 318.135 4.48804 318.367 4.48804C318.599 4.48804 318.795 4.57204 318.955 4.74004C319.123 4.90004 319.207 5.09604 319.207 5.32804C319.207 5.56004 319.123 5.76004 318.955 5.92804C318.795 6.08804 318.599 6.16804 318.367 6.16804C318.135 6.16804 317.935 6.08804 317.767 5.92804C317.607 5.76004 317.527 5.56004 317.527 5.32804Z" fill="black"/>
<path d="M324.875 5.32804C324.875 5.09604 324.955 4.90004 325.115 4.74004C325.283 4.57204 325.483 4.48804 325.715 4.48804C325.947 4.48804 326.143 4.57204 326.303 4.74004C326.471 4.90004 326.555 5.09604 326.555 5.32804C326.555 5.56004 326.471 5.76004 326.303 5.92804C326.143 6.08804 325.947 6.16804 325.715 6.16804C325.483 6.16804 325.283 6.08804 325.115 5.92804C324.955 5.76004 324.875 5.56004 324.875 5.32804Z" fill="black"/>
<path d="M332.223 5.32804C332.223 5.09604 332.303 4.90004 332.463 4.74004C332.631 4.57204 332.831 4.48804 333.063 4.48804C333.295 4.48804 333.491 4.57204 333.651 4.74004C333.819 4.90004 333.903 5.09604 333.903 5.32804C333.903 5.56004 333.819 5.76004 333.651 5.92804C333.491 6.08804 333.295 6.16804 333.063 6.16804C332.831 6.16804 332.631 6.08804 332.463 5.92804C332.303 5.76004 332.223 5.56004 332.223 5.32804Z" fill="black"/>
<path d="M339.57 5.32804C339.57 5.09604 339.65 4.90004 339.81 4.74004C339.978 4.57204 340.178 4.48804 340.41 4.48804C340.642 4.48804 340.838 4.57204 340.998 4.74004C341.166 4.90004 341.25 5.09604 341.25 5.32804C341.25 5.56004 341.166 5.76004 340.998 5.92804C340.838 6.08804 340.642 6.16804 340.41 6.16804C340.178 6.16804 339.978 6.08804 339.81 5.92804C339.65 5.76004 339.57 5.56004 339.57 5.32804Z" fill="black"/>
<path d="M346.918 5.32804C346.918 5.09604 346.998 4.90004 347.158 4.74004C347.326 4.57204 347.526 4.48804 347.758 4.48804C347.99 4.48804 348.186 4.57204 348.346 4.74004C348.514 4.90004 348.598 5.09604 348.598 5.32804C348.598 5.56004 348.514 5.76004 348.346 5.92804C348.186 6.08804 347.99 6.16804 347.758 6.16804C347.526 6.16804 347.326 6.08804 347.158 5.92804C346.998 5.76004 346.918 5.56004 346.918 5.32804Z" fill="black"/>
<path d="M354.266 5.32804C354.266 5.09604 354.346 4.90004 354.506 4.74004C354.674 4.57204 354.874 4.48804 355.106 4.48804C355.338 4.48804 355.534 4.57204 355.694 4.74004C355.862 4.90004 355.946 5.09604 355.946 5.32804C355.946 5.56004 355.862 5.76004 355.694 5.92804C355.534 6.08804 355.338 6.16804 355.106 6.16804C354.874 6.16804 354.674 6.08804 354.506 5.92804C354.346 5.76004 354.266 5.56004 354.266 5.32804Z" fill="black"/>
<path d="M361.613 5.32804C361.613 5.09604 361.693 4.90004 361.853 4.74004C362.021 4.57204 362.221 4.48804 362.453 4.48804C362.685 4.48804 362.881 4.57204 363.041 4.74004C363.209 4.90004 363.293 5.09604 363.293 5.32804C363.293 5.56004 363.209 5.76004 363.041 5.92804C362.881 6.08804 362.685 6.16804 362.453 6.16804C362.221 6.16804 362.021 6.08804 361.853 5.92804C361.693 5.76004 361.613 5.56004 361.613 5.32804Z" fill="black"/>
<path d="M368.961 5.32804C368.961 5.09604 369.041 4.90004 369.201 4.74004C369.369 4.57204 369.569 4.48804 369.801 4.48804C370.033 4.48804 370.229 4.57204 370.389 4.74004C370.557 4.90004 370.641 5.09604 370.641 5.32804C370.641 5.56004 370.557 5.76004 370.389 5.92804C370.229 6.08804 370.033 6.16804 369.801 6.16804C369.569 6.16804 369.369 6.08804 369.201 5.92804C369.041 5.76004 368.961 5.56004 368.961 5.32804Z" fill="black"/>
<path d="M527.937 2.88001V2.01601H531.417C532.153 2.01601 532.729 2.20801 533.145 2.59201C533.561 2.97601 533.769 3.56801 533.769 4.36801V8.06401C533.769 8.33601 533.681 8.56001 533.505 8.73601C533.337 8.91201 533.117 9.00001 532.845 9.00001H531.885C531.589 9.00001 531.373 8.92401 531.237 8.77201C531.101 8.61201 531.033 8.42401 531.033 8.20801H530.889C530.793 8.51201 530.629 8.74801 530.397 8.91601C530.173 9.08401 529.873 9.16801 529.497 9.16801C529.201 9.16801 528.929 9.10801 528.681 8.98801C528.433 8.86801 528.217 8.69601 528.033 8.47201C527.857 8.24801 527.717 7.97601 527.613 7.65601C527.509 7.32801 527.457 6.96401 527.457 6.56401V6.34801C527.457 5.94801 527.509 5.58801 527.613 5.26801C527.717 4.94801 527.857 4.67601 528.033 4.45201C528.217 4.22001 528.433 4.04401 528.681 3.92401C528.929 3.80401 529.193 3.74401 529.473 3.74401C529.841 3.74401 530.121 3.81601 530.313 3.96001C530.513 4.09601 530.681 4.29601 530.817 4.56001H530.961V3.91201H531.897V7.77601C531.897 8.01601 532.005 8.13601 532.221 8.13601H532.509C532.725 8.13601 532.833 8.01601 532.833 7.77601V4.46401C532.833 3.94401 532.709 3.55201 532.461 3.28801C532.221 3.01601 531.841 2.88001 531.321 2.88001H527.937ZM529.677 8.28001C529.917 8.28001 530.117 8.23601 530.277 8.14801C530.445 8.06001 530.577 7.94001 530.673 7.78801C530.777 7.62801 530.849 7.44401 530.889 7.23601C530.937 7.02801 530.961 6.80401 530.961 6.56401V6.34801C530.961 6.12401 530.937 5.90801 530.889 5.70001C530.849 5.49201 530.777 5.30801 530.673 5.14801C530.577 4.98801 530.445 4.86401 530.277 4.77601C530.117 4.68001 529.917 4.63201 529.677 4.63201C529.477 4.63201 529.297 4.67601 529.137 4.76401C528.977 4.85201 528.841 4.97601 528.729 5.13601C528.625 5.28801 528.541 5.46801 528.477 5.67601C528.421 5.88401 528.393 6.10801 528.393 6.34801V6.56401C528.393 7.06801 528.505 7.48001 528.729 7.80001C528.953 8.12001 529.269 8.28001 529.677 8.28001Z" fill="black"/>
<path d="M535.477 0.600007H540.565V1.53601H536.485V4.32001H540.493V5.25601H536.485V8.06401H540.637V9.00001H535.477V0.600007Z" fill="black"/>
<path d="M547.168 6.91201H543.568L542.956 9.00001H541.876L544.42 0.600007H546.316L548.86 9.00001H547.78L547.168 6.91201ZM545.296 1.03201L543.844 5.97601H546.892L545.44 1.03201H545.296Z" fill="black"/>
<path d="M549.764 0.600007H555.668V1.53601H553.22V9.00001H552.212V1.53601H549.764V0.600007Z" fill="black"/>
<path d="M556.944 0.600007H558.864L559.992 8.56801H560.136L561.264 0.600007H563.184V9.00001H562.248V1.03201H562.104L560.976 9.00001H559.152L558.024 1.03201H557.88V9.00001H556.944V0.600007Z" fill="black"/>
<path d="M565.539 0.600007V6.16801C565.539 6.84801 565.695 7.36401 566.007 7.71601C566.327 8.06001 566.795 8.23201 567.411 8.23201C568.027 8.23201 568.491 8.06001 568.803 7.71601C569.123 7.36401 569.283 6.84801 569.283 6.16801V0.600007H570.291V6.16801C570.291 7.14401 570.035 7.88801 569.523 8.40001C569.011 8.91201 568.307 9.16801 567.411 9.16801C566.515 9.16801 565.811 8.91201 565.299 8.40001C564.787 7.88801 564.531 7.14401 564.531 6.16801V0.600007H565.539Z" fill="black"/>
<path d="M576.403 8.56801H576.547V0.600007H577.555V9.00001H575.539L573.115 1.03201H572.971V9.00001H571.963V0.600007H573.979L576.403 8.56801Z" fill="black"/>
<path d="M582.155 8.23201C582.499 8.23201 582.791 8.17601 583.031 8.06401C583.279 7.94401 583.479 7.78801 583.631 7.59601C583.791 7.39601 583.907 7.17201 583.979 6.92401C584.059 6.66801 584.099 6.40001 584.099 6.12001V5.97601H585.107V6.12001C585.107 6.54401 585.043 6.94401 584.915 7.32001C584.787 7.68801 584.599 8.01201 584.351 8.29201C584.103 8.56401 583.795 8.78001 583.427 8.94001C583.059 9.09201 582.635 9.16801 582.155 9.16801C581.227 9.16801 580.503 8.87601 579.983 8.29201C579.463 7.70801 579.203 6.85601 579.203 5.73601V3.86401C579.203 2.77601 579.463 1.93201 579.983 1.33201C580.503 0.732007 581.227 0.432007 582.155 0.432007C582.635 0.432007 583.059 0.512007 583.427 0.672008C583.795 0.824008 584.103 1.04001 584.351 1.32001C584.599 1.59201 584.787 1.91601 584.915 2.29201C585.043 2.66001 585.107 3.05601 585.107 3.48001V3.62401H584.099V3.48001C584.091 3.20801 584.047 2.94401 583.967 2.68801C583.895 2.43201 583.779 2.20801 583.619 2.01601C583.467 1.81601 583.271 1.66001 583.031 1.54801C582.791 1.42801 582.499 1.36801 582.155 1.36801C581.507 1.36801 581.019 1.60401 580.691 2.07601C580.371 2.54801 580.211 3.16801 580.211 3.93601V5.66401C580.211 6.48801 580.371 7.12401 580.691 7.57201C581.019 8.01201 581.507 8.23201 582.155 8.23201Z" fill="black"/>
<path d="M586.658 0.600007H587.666V4.32001H591.242V0.600007H592.25V9.00001H591.242V5.25601H587.666V9.00001H586.658V0.600007Z" fill="black"/>
<path d="M596.298 6.04801H596.082L593.454 0.600007H594.582L596.73 5.18401H596.874L599.022 0.600007H600.15L597.522 6.04801H597.306V9.00001H596.298V6.04801Z" fill="black"/>
<path d="M453.832 5.32804C453.832 5.09604 453.912 4.90004 454.072 4.74004C454.24 4.57204 454.44 4.48804 454.672 4.48804C454.904 4.48804 455.1 4.57204 455.26 4.74004C455.428 4.90004 455.512 5.09604 455.512 5.32804C455.512 5.56004 455.428 5.76004 455.26 5.92804C455.1 6.08804 454.904 6.16804 454.672 6.16804C454.44 6.16804 454.24 6.08804 454.072 5.92804C453.912 5.76004 453.832 5.56004 453.832 5.32804Z" fill="black"/>
<path d="M461.18 5.32804C461.18 5.09604 461.26 4.90004 461.42 4.74004C461.588 4.57204 461.788 4.48804 462.02 4.48804C462.252 4.48804 462.448 4.57204 462.608 4.74004C462.776 4.90004 462.86 5.09604 462.86 5.32804C462.86 5.56004 462.776 5.76004 462.608 5.92804C462.448 6.08804 462.252 6.16804 462.02 6.16804C461.788 6.16804 461.588 6.08804 461.42 5.92804C461.26 5.76004 461.18 5.56004 461.18 5.32804Z" fill="black"/>
<path d="M468.527 5.32804C468.527 5.09604 468.607 4.90004 468.767 4.74004C468.935 4.57204 469.135 4.48804 469.367 4.48804C469.599 4.48804 469.795 4.57204 469.955 4.74004C470.123 4.90004 470.207 5.09604 470.207 5.32804C470.207 5.56004 470.123 5.76004 469.955 5.92804C469.795 6.08804 469.599 6.16804 469.367 6.16804C469.135 6.16804 468.935 6.08804 468.767 5.92804C468.607 5.76004 468.527 5.56004 468.527 5.32804Z" fill="black"/>
<path d="M475.875 5.32804C475.875 5.09604 475.955 4.90004 476.115 4.74004C476.283 4.57204 476.483 4.48804 476.715 4.48804C476.947 4.48804 477.143 4.57204 477.303 4.74004C477.471 4.90004 477.555 5.09604 477.555 5.32804C477.555 5.56004 477.471 5.76004 477.303 5.92804C477.143 6.08804 476.947 6.16804 476.715 6.16804C476.483 6.16804 476.283 6.08804 476.115 5.92804C475.955 5.76004 475.875 5.56004 475.875 5.32804Z" fill="black"/>
<path d="M483.223 5.32804C483.223 5.09604 483.303 4.90004 483.463 4.74004C483.631 4.57204 483.831 4.48804 484.063 4.48804C484.295 4.48804 484.491 4.57204 484.651 4.74004C484.819 4.90004 484.903 5.09604 484.903 5.32804C484.903 5.56004 484.819 5.76004 484.651 5.92804C484.491 6.08804 484.295 6.16804 484.063 6.16804C483.831 6.16804 483.631 6.08804 483.463 5.92804C483.303 5.76004 483.223 5.56004 483.223 5.32804Z" fill="black"/>
<path d="M490.57 5.32804C490.57 5.09604 490.65 4.90004 490.81 4.74004C490.978 4.57204 491.178 4.48804 491.41 4.48804C491.642 4.48804 491.838 4.57204 491.998 4.74004C492.166 4.90004 492.25 5.09604 492.25 5.32804C492.25 5.56004 492.166 5.76004 491.998 5.92804C491.838 6.08804 491.642 6.16804 491.41 6.16804C491.178 6.16804 490.978 6.08804 490.81 5.92804C490.65 5.76004 490.57 5.56004 490.57 5.32804Z" fill="black"/>
<path d="M497.918 5.32804C497.918 5.09604 497.998 4.90004 498.158 4.74004C498.326 4.57204 498.526 4.48804 498.758 4.48804C498.99 4.48804 499.186 4.57204 499.346 4.74004C499.514 4.90004 499.598 5.09604 499.598 5.32804C499.598 5.56004 499.514 5.76004 499.346 5.92804C499.186 6.08804 498.99 6.16804 498.758 6.16804C498.526 6.16804 498.326 6.08804 498.158 5.92804C497.998 5.76004 497.918 5.56004 497.918 5.32804Z" fill="black"/>
<path d="M505.266 5.32804C505.266 5.09604 505.346 4.90004 505.506 4.74004C505.674 4.57204 505.874 4.48804 506.106 4.48804C506.338 4.48804 506.534 4.57204 506.694 4.74004C506.862 4.90004 506.946 5.09604 506.946 5.32804C506.946 5.56004 506.862 5.76004 506.694 5.92804C506.534 6.08804 506.338 6.16804 506.106 6.16804C505.874 6.16804 505.674 6.08804 505.506 5.92804C505.346 5.76004 505.266 5.56004 505.266 5.32804Z" fill="black"/>
<path d="M512.613 5.32804C512.613 5.09604 512.693 4.90004 512.853 4.74004C513.021 4.57204 513.221 4.48804 513.453 4.48804C513.685 4.48804 513.881 4.57204 514.041 4.74004C514.209 4.90004 514.293 5.09604 514.293 5.32804C514.293 5.56004 514.209 5.76004 514.041 5.92804C513.881 6.08804 513.685 6.16804 513.453 6.16804C513.221 6.16804 513.021 6.08804 512.853 5.92804C512.693 5.76004 512.613 5.56004 512.613 5.32804Z" fill="black"/>
<path d="M519.961 5.32804C519.961 5.09604 520.041 4.90004 520.201 4.74004C520.369 4.57204 520.569 4.48804 520.801 4.48804C521.033 4.48804 521.229 4.57204 521.389 4.74004C521.557 4.90004 521.641 5.09604 521.641 5.32804C521.641 5.56004 521.557 5.76004 521.389 5.92804C521.229 6.08804 521.033 6.16804 520.801 6.16804C520.569 6.16804 520.369 6.08804 520.201 5.92804C520.041 5.76004 519.961 5.56004 519.961 5.32804Z" fill="black"/>
<path d="M678.937 2.88001V2.01601H682.417C683.153 2.01601 683.729 2.20801 684.145 2.59201C684.561 2.97601 684.769 3.56801 684.769 4.36801V8.06401C684.769 8.33601 684.681 8.56001 684.505 8.73601C684.337 8.91201 684.117 9.00001 683.845 9.00001H682.885C682.589 9.00001 682.373 8.92401 682.237 8.77201C682.101 8.61201 682.033 8.42401 682.033 8.20801H681.889C681.793 8.51201 681.629 8.74801 681.397 8.91601C681.173 9.08401 680.873 9.16801 680.497 9.16801C680.201 9.16801 679.929 9.10801 679.681 8.98801C679.433 8.86801 679.217 8.69601 679.033 8.47201C678.857 8.24801 678.717 7.97601 678.613 7.65601C678.509 7.32801 678.457 6.96401 678.457 6.56401V6.34801C678.457 5.94801 678.509 5.58801 678.613 5.26801C678.717 4.94801 678.857 4.67601 679.033 4.45201C679.217 4.22001 679.433 4.04401 679.681 3.92401C679.929 3.80401 680.193 3.74401 680.473 3.74401C680.841 3.74401 681.121 3.81601 681.313 3.96001C681.513 4.09601 681.681 4.29601 681.817 4.56001H681.961V3.91201H682.897V7.77601C682.897 8.01601 683.005 8.13601 683.221 8.13601H683.509C683.725 8.13601 683.833 8.01601 683.833 7.77601V4.46401C683.833 3.94401 683.709 3.55201 683.461 3.28801C683.221 3.01601 682.841 2.88001 682.321 2.88001H678.937ZM680.677 8.28001C680.917 8.28001 681.117 8.23601 681.277 8.14801C681.445 8.06001 681.577 7.94001 681.673 7.78801C681.777 7.62801 681.849 7.44401 681.889 7.23601C681.937 7.02801 681.961 6.80401 681.961 6.56401V6.34801C681.961 6.12401 681.937 5.90801 681.889 5.70001C681.849 5.49201 681.777 5.30801 681.673 5.14801C681.577 4.98801 681.445 4.86401 681.277 4.77601C681.117 4.68001 680.917 4.63201 680.677 4.63201C680.477 4.63201 680.297 4.67601 680.137 4.76401C679.977 4.85201 679.841 4.97601 679.729 5.13601C679.625 5.28801 679.541 5.46801 679.477 5.67601C679.421 5.88401 679.393 6.10801 679.393 6.34801V6.56401C679.393 7.06801 679.505 7.48001 679.729 7.80001C679.953 8.12001 680.269 8.28001 680.677 8.28001Z" fill="black"/>
<path d="M686.477 0.600007H691.565V1.53601H687.485V4.32001H691.493V5.25601H687.485V8.06401H691.637V9.00001H686.477V0.600007Z" fill="black"/>
<path d="M698.168 6.91201H694.568L693.956 9.00001H692.876L695.42 0.600007H697.316L699.86 9.00001H698.78L698.168 6.91201ZM696.296 1.03201L694.844 5.97601H697.892L696.44 1.03201H696.296Z" fill="black"/>
<path d="M700.764 0.600007H706.668V1.53601H704.22V9.00001H703.212V1.53601H700.764V0.600007Z" fill="black"/>
<path d="M707.944 0.600007H709.864L710.992 8.56801H711.136L712.264 0.600007H714.184V9.00001H713.248V1.03201H713.104L711.976 9.00001H710.152L709.024 1.03201H708.88V9.00001H707.944V0.600007Z" fill="black"/>
<path d="M716.539 0.600007V6.16801C716.539 6.84801 716.695 7.36401 717.007 7.71601C717.327 8.06001 717.795 8.23201 718.411 8.23201C719.027 8.23201 719.491 8.06001 719.803 7.71601C720.123 7.36401 720.283 6.84801 720.283 6.16801V0.600007H721.291V6.16801C721.291 7.14401 721.035 7.88801 720.523 8.40001C720.011 8.91201 719.307 9.16801 718.411 9.16801C717.515 9.16801 716.811 8.91201 716.299 8.40001C715.787 7.88801 715.531 7.14401 715.531 6.16801V0.600007H716.539Z" fill="black"/>
<path d="M727.403 8.56801H727.547V0.600007H728.555V9.00001H726.539L724.115 1.03201H723.971V9.00001H722.963V0.600007H724.979L727.403 8.56801Z" fill="black"/>
<path d="M733.155 8.23201C733.499 8.23201 733.791 8.17601 734.031 8.06401C734.279 7.94401 734.479 7.78801 734.631 7.59601C734.791 7.39601 734.907 7.17201 734.979 6.92401C735.059 6.66801 735.099 6.40001 735.099 6.12001V5.97601H736.107V6.12001C736.107 6.54401 736.043 6.94401 735.915 7.32001C735.787 7.68801 735.599 8.01201 735.351 8.29201C735.103 8.56401 734.795 8.78001 734.427 8.94001C734.059 9.09201 733.635 9.16801 733.155 9.16801C732.227 9.16801 731.503 8.87601 730.983 8.29201C730.463 7.70801 730.203 6.85601 730.203 5.73601V3.86401C730.203 2.77601 730.463 1.93201 730.983 1.33201C731.503 0.732007 732.227 0.432007 733.155 0.432007C733.635 0.432007 734.059 0.512007 734.427 0.672008C734.795 0.824008 735.103 1.04001 735.351 1.32001C735.599 1.59201 735.787 1.91601 735.915 2.29201C736.043 2.66001 736.107 3.05601 736.107 3.48001V3.62401H735.099V3.48001C735.091 3.20801 735.047 2.94401 734.967 2.68801C734.895 2.43201 734.779 2.20801 734.619 2.01601C734.467 1.81601 734.271 1.66001 734.031 1.54801C733.791 1.42801 733.499 1.36801 733.155 1.36801C732.507 1.36801 732.019 1.60401 731.691 2.07601C731.371 2.54801 731.211 3.16801 731.211 3.93601V5.66401C731.211 6.48801 731.371 7.12401 731.691 7.57201C732.019 8.01201 732.507 8.23201 733.155 8.23201Z" fill="black"/>
<path d="M737.658 0.600007H738.666V4.32001H742.242V0.600007H743.25V9.00001H742.242V5.25601H738.666V9.00001H737.658V0.600007Z" fill="black"/>
<path d="M747.298 6.04801H747.082L744.454 0.600007H745.582L747.73 5.18401H747.874L750.022 0.600007H751.15L748.522 6.04801H748.306V9.00001H747.298V6.04801Z" fill="black"/>
<path d="M604.832 5.32804C604.832 5.09604 604.912 4.90004 605.072 4.74004C605.24 4.57204 605.44 4.48804 605.672 4.48804C605.904 4.48804 606.1 4.57204 606.26 4.74004C606.428 4.90004 606.512 5.09604 606.512 5.32804C606.512 5.56004 606.428 5.76004 606.26 5.92804C606.1 6.08804 605.904 6.16804 605.672 6.16804C605.44 6.16804 605.24 6.08804 605.072 5.92804C604.912 5.76004 604.832 5.56004 604.832 5.32804Z" fill="black"/>
<path d="M612.18 5.32804C612.18 5.09604 612.26 4.90004 612.42 4.74004C612.588 4.57204 612.788 4.48804 613.02 4.48804C613.252 4.48804 613.448 4.57204 613.608 4.74004C613.776 4.90004 613.86 5.09604 613.86 5.32804C613.86 5.56004 613.776 5.76004 613.608 5.92804C613.448 6.08804 613.252 6.16804 613.02 6.16804C612.788 6.16804 612.588 6.08804 612.42 5.92804C612.26 5.76004 612.18 5.56004 612.18 5.32804Z" fill="black"/>
<path d="M619.527 5.32804C619.527 5.09604 619.607 4.90004 619.767 4.74004C619.935 4.57204 620.135 4.48804 620.367 4.48804C620.599 4.48804 620.795 4.57204 620.955 4.74004C621.123 4.90004 621.207 5.09604 621.207 5.32804C621.207 5.56004 621.123 5.76004 620.955 5.92804C620.795 6.08804 620.599 6.16804 620.367 6.16804C620.135 6.16804 619.935 6.08804 619.767 5.92804C619.607 5.76004 619.527 5.56004 619.527 5.32804Z" fill="black"/>
<path d="M626.875 5.32804C626.875 5.09604 626.955 4.90004 627.115 4.74004C627.283 4.57204 627.483 4.48804 627.715 4.48804C627.947 4.48804 628.143 4.57204 628.303 4.74004C628.471 4.90004 628.555 5.09604 628.555 5.32804C628.555 5.56004 628.471 5.76004 628.303 5.92804C628.143 6.08804 627.947 6.16804 627.715 6.16804C627.483 6.16804 627.283 6.08804 627.115 5.92804C626.955 5.76004 626.875 5.56004 626.875 5.32804Z" fill="black"/>
<path d="M634.223 5.32804C634.223 5.09604 634.303 4.90004 634.463 4.74004C634.631 4.57204 634.831 4.48804 635.063 4.48804C635.295 4.48804 635.491 4.57204 635.651 4.74004C635.819 4.90004 635.903 5.09604 635.903 5.32804C635.903 5.56004 635.819 5.76004 635.651 5.92804C635.491 6.08804 635.295 6.16804 635.063 6.16804C634.831 6.16804 634.631 6.08804 634.463 5.92804C634.303 5.76004 634.223 5.56004 634.223 5.32804Z" fill="black"/>
<path d="M641.57 5.32804C641.57 5.09604 641.65 4.90004 641.81 4.74004C641.978 4.57204 642.178 4.48804 642.41 4.48804C642.642 4.48804 642.838 4.57204 642.998 4.74004C643.166 4.90004 643.25 5.09604 643.25 5.32804C643.25 5.56004 643.166 5.76004 642.998 5.92804C642.838 6.08804 642.642 6.16804 642.41 6.16804C642.178 6.16804 641.978 6.08804 641.81 5.92804C641.65 5.76004 641.57 5.56004 641.57 5.32804Z" fill="black"/>
<path d="M648.918 5.32804C648.918 5.09604 648.998 4.90004 649.158 4.74004C649.326 4.57204 649.526 4.48804 649.758 4.48804C649.99 4.48804 650.186 4.57204 650.346 4.74004C650.514 4.90004 650.598 5.09604 650.598 5.32804C650.598 5.56004 650.514 5.76004 650.346 5.92804C650.186 6.08804 649.99 6.16804 649.758 6.16804C649.526 6.16804 649.326 6.08804 649.158 5.92804C648.998 5.76004 648.918 5.56004 648.918 5.32804Z" fill="black"/>
<path d="M656.266 5.32804C656.266 5.09604 656.346 4.90004 656.506 4.74004C656.674 4.57204 656.874 4.48804 657.106 4.48804C657.338 4.48804 657.534 4.57204 657.694 4.74004C657.862 4.90004 657.946 5.09604 657.946 5.32804C657.946 5.56004 657.862 5.76004 657.694 5.92804C657.534 6.08804 657.338 6.16804 657.106 6.16804C656.874 6.16804 656.674 6.08804 656.506 5.92804C656.346 5.76004 656.266 5.56004 656.266 5.32804Z" fill="black"/>
<path d="M663.613 5.32804C663.613 5.09604 663.693 4.90004 663.853 4.74004C664.021 4.57204 664.221 4.48804 664.453 4.48804C664.685 4.48804 664.881 4.57204 665.041 4.74004C665.209 4.90004 665.293 5.09604 665.293 5.32804C665.293 5.56004 665.209 5.76004 665.041 5.92804C664.881 6.08804 664.685 6.16804 664.453 6.16804C664.221 6.16804 664.021 6.08804 663.853 5.92804C663.693 5.76004 663.613 5.56004 663.613 5.32804Z" fill="black"/>
<path d="M670.961 5.32804C670.961 5.09604 671.041 4.90004 671.201 4.74004C671.369 4.57204 671.569 4.48804 671.801 4.48804C672.033 4.48804 672.229 4.57204 672.389 4.74004C672.557 4.90004 672.641 5.09604 672.641 5.32804C672.641 5.56004 672.557 5.76004 672.389 5.92804C672.229 6.08804 672.033 6.16804 671.801 6.16804C671.569 6.16804 671.369 6.08804 671.201 5.92804C671.041 5.76004 670.961 5.56004 670.961 5.32804Z" fill="black"/>
<path d="M829.937 2.88001V2.01601H833.417C834.153 2.01601 834.729 2.20801 835.145 2.59201C835.561 2.97601 835.769 3.56801 835.769 4.36801V8.06401C835.769 8.33601 835.681 8.56001 835.505 8.73601C835.337 8.91201 835.117 9.00001 834.845 9.00001H833.885C833.589 9.00001 833.373 8.92401 833.237 8.77201C833.101 8.61201 833.033 8.42401 833.033 8.20801H832.889C832.793 8.51201 832.629 8.74801 832.397 8.91601C832.173 9.08401 831.873 9.16801 831.497 9.16801C831.201 9.16801 830.929 9.10801 830.681 8.98801C830.433 8.86801 830.217 8.69601 830.033 8.47201C829.857 8.24801 829.717 7.97601 829.613 7.65601C829.509 7.32801 829.457 6.96401 829.457 6.56401V6.34801C829.457 5.94801 829.509 5.58801 829.613 5.26801C829.717 4.94801 829.857 4.67601 830.033 4.45201C830.217 4.22001 830.433 4.04401 830.681 3.92401C830.929 3.80401 831.193 3.74401 831.473 3.74401C831.841 3.74401 832.121 3.81601 832.313 3.96001C832.513 4.09601 832.681 4.29601 832.817 4.56001H832.961V3.91201H833.897V7.77601C833.897 8.01601 834.005 8.13601 834.221 8.13601H834.509C834.725 8.13601 834.833 8.01601 834.833 7.77601V4.46401C834.833 3.94401 834.709 3.55201 834.461 3.28801C834.221 3.01601 833.841 2.88001 833.321 2.88001H829.937ZM831.677 8.28001C831.917 8.28001 832.117 8.23601 832.277 8.14801C832.445 8.06001 832.577 7.94001 832.673 7.78801C832.777 7.62801 832.849 7.44401 832.889 7.23601C832.937 7.02801 832.961 6.80401 832.961 6.56401V6.34801C832.961 6.12401 832.937 5.90801 832.889 5.70001C832.849 5.49201 832.777 5.30801 832.673 5.14801C832.577 4.98801 832.445 4.86401 832.277 4.77601C832.117 4.68001 831.917 4.63201 831.677 4.63201C831.477 4.63201 831.297 4.67601 831.137 4.76401C830.977 4.85201 830.841 4.97601 830.729 5.13601C830.625 5.28801 830.541 5.46801 830.477 5.67601C830.421 5.88401 830.393 6.10801 830.393 6.34801V6.56401C830.393 7.06801 830.505 7.48001 830.729 7.80001C830.953 8.12001 831.269 8.28001 831.677 8.28001Z" fill="black"/>
<path d="M837.477 0.600007H842.565V1.53601H838.485V4.32001H842.493V5.25601H838.485V8.06401H842.637V9.00001H837.477V0.600007Z" fill="black"/>
<path d="M849.168 6.91201H845.568L844.956 9.00001H843.876L846.42 0.600007H848.316L850.86 9.00001H849.78L849.168 6.91201ZM847.296 1.03201L845.844 5.97601H848.892L847.44 1.03201H847.296Z" fill="black"/>
<path d="M851.764 0.600007H857.668V1.53601H855.22V9.00001H854.212V1.53601H851.764V0.600007Z" fill="black"/>
<path d="M858.944 0.600007H860.864L861.992 8.56801H862.136L863.264 0.600007H865.184V9.00001H864.248V1.03201H864.104L862.976 9.00001H861.152L860.024 1.03201H859.88V9.00001H858.944V0.600007Z" fill="black"/>
<path d="M867.539 0.600007V6.16801C867.539 6.84801 867.695 7.36401 868.007 7.71601C868.327 8.06001 868.795 8.23201 869.411 8.23201C870.027 8.23201 870.491 8.06001 870.803 7.71601C871.123 7.36401 871.283 6.84801 871.283 6.16801V0.600007H872.291V6.16801C872.291 7.14401 872.035 7.88801 871.523 8.40001C871.011 8.91201 870.307 9.16801 869.411 9.16801C868.515 9.16801 867.811 8.91201 867.299 8.40001C866.787 7.88801 866.531 7.14401 866.531 6.16801V0.600007H867.539Z" fill="black"/>
<path d="M878.403 8.56801H878.547V0.600007H879.555V9.00001H877.539L875.115 1.03201H874.971V9.00001H873.963V0.600007H875.979L878.403 8.56801Z" fill="black"/>
<path d="M884.155 8.23201C884.499 8.23201 884.791 8.17601 885.031 8.06401C885.279 7.94401 885.479 7.78801 885.631 7.59601C885.791 7.39601 885.907 7.17201 885.979 6.92401C886.059 6.66801 886.099 6.40001 886.099 6.12001V5.97601H887.107V6.12001C887.107 6.54401 887.043 6.94401 886.915 7.32001C886.787 7.68801 886.599 8.01201 886.351 8.29201C886.103 8.56401 885.795 8.78001 885.427 8.94001C885.059 9.09201 884.635 9.16801 884.155 9.16801C883.227 9.16801 882.503 8.87601 881.983 8.29201C881.463 7.70801 881.203 6.85601 881.203 5.73601V3.86401C881.203 2.77601 881.463 1.93201 881.983 1.33201C882.503 0.732007 883.227 0.432007 884.155 0.432007C884.635 0.432007 885.059 0.512007 885.427 0.672008C885.795 0.824008 886.103 1.04001 886.351 1.32001C886.599 1.59201 886.787 1.91601 886.915 2.29201C887.043 2.66001 887.107 3.05601 887.107 3.48001V3.62401H886.099V3.48001C886.091 3.20801 886.047 2.94401 885.967 2.68801C885.895 2.43201 885.779 2.20801 885.619 2.01601C885.467 1.81601 885.271 1.66001 885.031 1.54801C884.791 1.42801 884.499 1.36801 884.155 1.36801C883.507 1.36801 883.019 1.60401 882.691 2.07601C882.371 2.54801 882.211 3.16801 882.211 3.93601V5.66401C882.211 6.48801 882.371 7.12401 882.691 7.57201C883.019 8.01201 883.507 8.23201 884.155 8.23201Z" fill="black"/>
<path d="M888.658 0.600007H889.666V4.32001H893.242V0.600007H894.25V9.00001H893.242V5.25601H889.666V9.00001H888.658V0.600007Z" fill="black"/>
<path d="M898.298 6.04801H898.082L895.454 0.600007H896.582L898.73 5.18401H898.874L901.022 0.600007H902.15L899.522 6.04801H899.306V9.00001H898.298V6.04801Z" fill="black"/>
<path d="M755.832 5.32804C755.832 5.09604 755.912 4.90004 756.072 4.74004C756.24 4.57204 756.44 4.48804 756.672 4.48804C756.904 4.48804 757.1 4.57204 757.26 4.74004C757.428 4.90004 757.512 5.09604 757.512 5.32804C757.512 5.56004 757.428 5.76004 757.26 5.92804C757.1 6.08804 756.904 6.16804 756.672 6.16804C756.44 6.16804 756.24 6.08804 756.072 5.92804C755.912 5.76004 755.832 5.56004 755.832 5.32804Z" fill="black"/>
<path d="M763.18 5.32804C763.18 5.09604 763.26 4.90004 763.42 4.74004C763.588 4.57204 763.788 4.48804 764.02 4.48804C764.252 4.48804 764.448 4.57204 764.608 4.74004C764.776 4.90004 764.86 5.09604 764.86 5.32804C764.86 5.56004 764.776 5.76004 764.608 5.92804C764.448 6.08804 764.252 6.16804 764.02 6.16804C763.788 6.16804 763.588 6.08804 763.42 5.92804C763.26 5.76004 763.18 5.56004 763.18 5.32804Z" fill="black"/>
<path d="M770.527 5.32804C770.527 5.09604 770.607 4.90004 770.767 4.74004C770.935 4.57204 771.135 4.48804 771.367 4.48804C771.599 4.48804 771.795 4.57204 771.955 4.74004C772.123 4.90004 772.207 5.09604 772.207 5.32804C772.207 5.56004 772.123 5.76004 771.955 5.92804C771.795 6.08804 771.599 6.16804 771.367 6.16804C771.135 6.16804 770.935 6.08804 770.767 5.92804C770.607 5.76004 770.527 5.56004 770.527 5.32804Z" fill="black"/>
<path d="M777.875 5.32804C777.875 5.09604 777.955 4.90004 778.115 4.74004C778.283 4.57204 778.483 4.48804 778.715 4.48804C778.947 4.48804 779.143 4.57204 779.303 4.74004C779.471 4.90004 779.555 5.09604 779.555 5.32804C779.555 5.56004 779.471 5.76004 779.303 5.92804C779.143 6.08804 778.947 6.16804 778.715 6.16804C778.483 6.16804 778.283 6.08804 778.115 5.92804C777.955 5.76004 777.875 5.56004 777.875 5.32804Z" fill="black"/>
<path d="M785.223 5.32804C785.223 5.09604 785.303 4.90004 785.463 4.74004C785.631 4.57204 785.831 4.48804 786.063 4.48804C786.295 4.48804 786.491 4.57204 786.651 4.74004C786.819 4.90004 786.903 5.09604 786.903 5.32804C786.903 5.56004 786.819 5.76004 786.651 5.92804C786.491 6.08804 786.295 6.16804 786.063 6.16804C785.831 6.16804 785.631 6.08804 785.463 5.92804C785.303 5.76004 785.223 5.56004 785.223 5.32804Z" fill="black"/>
<path d="M792.57 5.32804C792.57 5.09604 792.65 4.90004 792.81 4.74004C792.978 4.57204 793.178 4.48804 793.41 4.48804C793.642 4.48804 793.838 4.57204 793.998 4.74004C794.166 4.90004 794.25 5.09604 794.25 5.32804C794.25 5.56004 794.166 5.76004 793.998 5.92804C793.838 6.08804 793.642 6.16804 793.41 6.16804C793.178 6.16804 792.978 6.08804 792.81 5.92804C792.65 5.76004 792.57 5.56004 792.57 5.32804Z" fill="black"/>
<path d="M799.918 5.32804C799.918 5.09604 799.998 4.90004 800.158 4.74004C800.326 4.57204 800.526 4.48804 800.758 4.48804C800.99 4.48804 801.186 4.57204 801.346 4.74004C801.514 4.90004 801.598 5.09604 801.598 5.32804C801.598 5.56004 801.514 5.76004 801.346 5.92804C801.186 6.08804 800.99 6.16804 800.758 6.16804C800.526 6.16804 800.326 6.08804 800.158 5.92804C799.998 5.76004 799.918 5.56004 799.918 5.32804Z" fill="black"/>
<path d="M807.266 5.32804C807.266 5.09604 807.346 4.90004 807.506 4.74004C807.674 4.57204 807.874 4.48804 808.106 4.48804C808.338 4.48804 808.534 4.57204 808.694 4.74004C808.862 4.90004 808.946 5.09604 808.946 5.32804C808.946 5.56004 808.862 5.76004 808.694 5.92804C808.534 6.08804 808.338 6.16804 808.106 6.16804C807.874 6.16804 807.674 6.08804 807.506 5.92804C807.346 5.76004 807.266 5.56004 807.266 5.32804Z" fill="black"/>
<path d="M814.613 5.32804C814.613 5.09604 814.693 4.90004 814.853 4.74004C815.021 4.57204 815.221 4.48804 815.453 4.48804C815.685 4.48804 815.881 4.57204 816.041 4.74004C816.209 4.90004 816.293 5.09604 816.293 5.32804C816.293 5.56004 816.209 5.76004 816.041 5.92804C815.881 6.08804 815.685 6.16804 815.453 6.16804C815.221 6.16804 815.021 6.08804 814.853 5.92804C814.693 5.76004 814.613 5.56004 814.613 5.32804Z" fill="black"/>
<path d="M821.961 5.32804C821.961 5.09604 822.041 4.90004 822.201 4.74004C822.369 4.57204 822.569 4.48804 822.801 4.48804C823.033 4.48804 823.229 4.57204 823.389 4.74004C823.557 4.90004 823.641 5.09604 823.641 5.32804C823.641 5.56004 823.557 5.76004 823.389 5.92804C823.229 6.08804 823.033 6.16804 822.801 6.16804C822.569 6.16804 822.369 6.08804 822.201 5.92804C822.041 5.76004 821.961 5.56004 821.961 5.32804Z" fill="black"/>
<path d="M980.937 2.88001V2.01601H984.417C985.153 2.01601 985.729 2.20801 986.145 2.59201C986.561 2.97601 986.769 3.56801 986.769 4.36801V8.06401C986.769 8.33601 986.681 8.56001 986.505 8.73601C986.337 8.91201 986.117 9.00001 985.845 9.00001H984.885C984.589 9.00001 984.373 8.92401 984.237 8.77201C984.101 8.61201 984.033 8.42401 984.033 8.20801H983.889C983.793 8.51201 983.629 8.74801 983.397 8.91601C983.173 9.08401 982.873 9.16801 982.497 9.16801C982.201 9.16801 981.929 9.10801 981.681 8.98801C981.433 8.86801 981.217 8.69601 981.033 8.47201C980.857 8.24801 980.717 7.97601 980.613 7.65601C980.509 7.32801 980.457 6.96401 980.457 6.56401V6.34801C980.457 5.94801 980.509 5.58801 980.613 5.26801C980.717 4.94801 980.857 4.67601 981.033 4.45201C981.217 4.22001 981.433 4.04401 981.681 3.92401C981.929 3.80401 982.193 3.74401 982.473 3.74401C982.841 3.74401 983.121 3.81601 983.313 3.96001C983.513 4.09601 983.681 4.29601 983.817 4.56001H983.961V3.91201H984.897V7.77601C984.897 8.01601 985.005 8.13601 985.221 8.13601H985.509C985.725 8.13601 985.833 8.01601 985.833 7.77601V4.46401C985.833 3.94401 985.709 3.55201 985.461 3.28801C985.221 3.01601 984.841 2.88001 984.321 2.88001H980.937ZM982.677 8.28001C982.917 8.28001 983.117 8.23601 983.277 8.14801C983.445 8.06001 983.577 7.94001 983.673 7.78801C983.777 7.62801 983.849 7.44401 983.889 7.23601C983.937 7.02801 983.961 6.80401 983.961 6.56401V6.34801C983.961 6.12401 983.937 5.90801 983.889 5.70001C983.849 5.49201 983.777 5.30801 983.673 5.14801C983.577 4.98801 983.445 4.86401 983.277 4.77601C983.117 4.68001 982.917 4.63201 982.677 4.63201C982.477 4.63201 982.297 4.67601 982.137 4.76401C981.977 4.85201 981.841 4.97601 981.729 5.13601C981.625 5.28801 981.541 5.46801 981.477 5.67601C981.421 5.88401 981.393 6.10801 981.393 6.34801V6.56401C981.393 7.06801 981.505 7.48001 981.729 7.80001C981.953 8.12001 982.269 8.28001 982.677 8.28001Z" fill="black"/>
<path d="M988.477 0.600007H993.565V1.53601H989.485V4.32001H993.493V5.25601H989.485V8.06401H993.637V9.00001H988.477V0.600007Z" fill="black"/>
<path d="M1000.17 6.91201H996.568L995.956 9.00001H994.876L997.42 0.600007H999.316L1001.86 9.00001H1000.78L1000.17 6.91201ZM998.296 1.03201L996.844 5.97601H999.892L998.44 1.03201H998.296Z" fill="black"/>
<path d="M1002.76 0.600007H1008.67V1.53601H1006.22V9.00001H1005.21V1.53601H1002.76V0.600007Z" fill="black"/>
<path d="M1009.94 0.600007H1011.86L1012.99 8.56801H1013.14L1014.26 0.600007H1016.18V9.00001H1015.25V1.03201H1015.1L1013.98 9.00001H1012.15L1011.02 1.03201H1010.88V9.00001H1009.94V0.600007Z" fill="black"/>
<path d="M1018.54 0.600007V6.16801C1018.54 6.84801 1018.7 7.36401 1019.01 7.71601C1019.33 8.06001 1019.8 8.23201 1020.41 8.23201C1021.03 8.23201 1021.49 8.06001 1021.8 7.71601C1022.12 7.36401 1022.28 6.84801 1022.28 6.16801V0.600007H1023.29V6.16801C1023.29 7.14401 1023.04 7.88801 1022.52 8.40001C1022.01 8.91201 1021.31 9.16801 1020.41 9.16801C1019.52 9.16801 1018.81 8.91201 1018.3 8.40001C1017.79 7.88801 1017.53 7.14401 1017.53 6.16801V0.600007H1018.54Z" fill="black"/>
<path d="M1029.4 8.56801H1029.55V0.600007H1030.55V9.00001H1028.54L1026.11 1.03201H1025.97V9.00001H1024.96V0.600007H1026.98L1029.4 8.56801Z" fill="black"/>
<path d="M1035.15 8.23201C1035.5 8.23201 1035.79 8.17601 1036.03 8.06401C1036.28 7.94401 1036.48 7.78801 1036.63 7.59601C1036.79 7.39601 1036.91 7.17201 1036.98 6.92401C1037.06 6.66801 1037.1 6.40001 1037.1 6.12001V5.97601H1038.11V6.12001C1038.11 6.54401 1038.04 6.94401 1037.91 7.32001C1037.79 7.68801 1037.6 8.01201 1037.35 8.29201C1037.1 8.56401 1036.79 8.78001 1036.43 8.94001C1036.06 9.09201 1035.63 9.16801 1035.15 9.16801C1034.23 9.16801 1033.5 8.87601 1032.98 8.29201C1032.46 7.70801 1032.2 6.85601 1032.2 5.73601V3.86401C1032.2 2.77601 1032.46 1.93201 1032.98 1.33201C1033.5 0.732007 1034.23 0.432007 1035.15 0.432007C1035.63 0.432007 1036.06 0.512007 1036.43 0.672008C1036.79 0.824008 1037.1 1.04001 1037.35 1.32001C1037.6 1.59201 1037.79 1.91601 1037.91 2.29201C1038.04 2.66001 1038.11 3.05601 1038.11 3.48001V3.62401H1037.1V3.48001C1037.09 3.20801 1037.05 2.94401 1036.97 2.68801C1036.89 2.43201 1036.78 2.20801 1036.62 2.01601C1036.47 1.81601 1036.27 1.66001 1036.03 1.54801C1035.79 1.42801 1035.5 1.36801 1035.15 1.36801C1034.51 1.36801 1034.02 1.60401 1033.69 2.07601C1033.37 2.54801 1033.21 3.16801 1033.21 3.93601V5.66401C1033.21 6.48801 1033.37 7.12401 1033.69 7.57201C1034.02 8.01201 1034.51 8.23201 1035.15 8.23201Z" fill="black"/>
<path d="M1039.66 0.600007H1040.67V4.32001H1044.24V0.600007H1045.25V9.00001H1044.24V5.25601H1040.67V9.00001H1039.66V0.600007Z" fill="black"/>
<path d="M1049.3 6.04801H1049.08L1046.45 0.600007H1047.58L1049.73 5.18401H1049.87L1052.02 0.600007H1053.15L1050.52 6.04801H1050.31V9.00001H1049.3V6.04801Z" fill="black"/>
<path d="M906.832 5.32804C906.832 5.09604 906.912 4.90004 907.072 4.74004C907.24 4.57204 907.44 4.48804 907.672 4.48804C907.904 4.48804 908.1 4.57204 908.26 4.74004C908.428 4.90004 908.512 5.09604 908.512 5.32804C908.512 5.56004 908.428 5.76004 908.26 5.92804C908.1 6.08804 907.904 6.16804 907.672 6.16804C907.44 6.16804 907.24 6.08804 907.072 5.92804C906.912 5.76004 906.832 5.56004 906.832 5.32804Z" fill="black"/>
<path d="M914.18 5.32804C914.18 5.09604 914.26 4.90004 914.42 4.74004C914.588 4.57204 914.788 4.48804 915.02 4.48804C915.252 4.48804 915.448 4.57204 915.608 4.74004C915.776 4.90004 915.86 5.09604 915.86 5.32804C915.86 5.56004 915.776 5.76004 915.608 5.92804C915.448 6.08804 915.252 6.16804 915.02 6.16804C914.788 6.16804 914.588 6.08804 914.42 5.92804C914.26 5.76004 914.18 5.56004 914.18 5.32804Z" fill="black"/>
<path d="M921.527 5.32804C921.527 5.09604 921.607 4.90004 921.767 4.74004C921.935 4.57204 922.135 4.48804 922.367 4.48804C922.599 4.48804 922.795 4.57204 922.955 4.74004C923.123 4.90004 923.207 5.09604 923.207 5.32804C923.207 5.56004 923.123 5.76004 922.955 5.92804C922.795 6.08804 922.599 6.16804 922.367 6.16804C922.135 6.16804 921.935 6.08804 921.767 5.92804C921.607 5.76004 921.527 5.56004 921.527 5.32804Z" fill="black"/>
<path d="M928.875 5.32804C928.875 5.09604 928.955 4.90004 929.115 4.74004C929.283 4.57204 929.483 4.48804 929.715 4.48804C929.947 4.48804 930.143 4.57204 930.303 4.74004C930.471 4.90004 930.555 5.09604 930.555 5.32804C930.555 5.56004 930.471 5.76004 930.303 5.92804C930.143 6.08804 929.947 6.16804 929.715 6.16804C929.483 6.16804 929.283 6.08804 929.115 5.92804C928.955 5.76004 928.875 5.56004 928.875 5.32804Z" fill="black"/>
<path d="M936.223 5.32804C936.223 5.09604 936.303 4.90004 936.463 4.74004C936.631 4.57204 936.831 4.48804 937.063 4.48804C937.295 4.48804 937.491 4.57204 937.651 4.74004C937.819 4.90004 937.903 5.09604 937.903 5.32804C937.903 5.56004 937.819 5.76004 937.651 5.92804C937.491 6.08804 937.295 6.16804 937.063 6.16804C936.831 6.16804 936.631 6.08804 936.463 5.92804C936.303 5.76004 936.223 5.56004 936.223 5.32804Z" fill="black"/>
<path d="M943.57 5.32804C943.57 5.09604 943.65 4.90004 943.81 4.74004C943.978 4.57204 944.178 4.48804 944.41 4.48804C944.642 4.48804 944.838 4.57204 944.998 4.74004C945.166 4.90004 945.25 5.09604 945.25 5.32804C945.25 5.56004 945.166 5.76004 944.998 5.92804C944.838 6.08804 944.642 6.16804 944.41 6.16804C944.178 6.16804 943.978 6.08804 943.81 5.92804C943.65 5.76004 943.57 5.56004 943.57 5.32804Z" fill="black"/>
<path d="M950.918 5.32804C950.918 5.09604 950.998 4.90004 951.158 4.74004C951.326 4.57204 951.526 4.48804 951.758 4.48804C951.99 4.48804 952.186 4.57204 952.346 4.74004C952.514 4.90004 952.598 5.09604 952.598 5.32804C952.598 5.56004 952.514 5.76004 952.346 5.92804C952.186 6.08804 951.99 6.16804 951.758 6.16804C951.526 6.16804 951.326 6.08804 951.158 5.92804C950.998 5.76004 950.918 5.56004 950.918 5.32804Z" fill="black"/>
<path d="M958.266 5.32804C958.266 5.09604 958.346 4.90004 958.506 4.74004C958.674 4.57204 958.874 4.48804 959.106 4.48804C959.338 4.48804 959.534 4.57204 959.694 4.74004C959.862 4.90004 959.946 5.09604 959.946 5.32804C959.946 5.56004 959.862 5.76004 959.694 5.92804C959.534 6.08804 959.338 6.16804 959.106 6.16804C958.874 6.16804 958.674 6.08804 958.506 5.92804C958.346 5.76004 958.266 5.56004 958.266 5.32804Z" fill="black"/>
<path d="M965.613 5.32804C965.613 5.09604 965.693 4.90004 965.853 4.74004C966.021 4.57204 966.221 4.48804 966.453 4.48804C966.685 4.48804 966.881 4.57204 967.041 4.74004C967.209 4.90004 967.293 5.09604 967.293 5.32804C967.293 5.56004 967.209 5.76004 967.041 5.92804C966.881 6.08804 966.685 6.16804 966.453 6.16804C966.221 6.16804 966.021 6.08804 965.853 5.92804C965.693 5.76004 965.613 5.56004 965.613 5.32804Z" fill="black"/>
<path d="M972.961 5.32804C972.961 5.09604 973.041 4.90004 973.201 4.74004C973.369 4.57204 973.569 4.48804 973.801 4.48804C974.033 4.48804 974.229 4.57204 974.389 4.74004C974.557 4.90004 974.641 5.09604 974.641 5.32804C974.641 5.56004 974.557 5.76004 974.389 5.92804C974.229 6.08804 974.033 6.16804 973.801 6.16804C973.569 6.16804 973.369 6.08804 973.201 5.92804C973.041 5.76004 972.961 5.56004 972.961 5.32804Z" fill="black"/>
</svg>
