<svg width="37" height="31" viewBox="0 0 37 31" fill="none" xmlns="http://www.w3.org/2000/svg">
<path d="M31.6215 8.72159C31.6416 9.01453 31.6417 9.30745 31.6417 9.60308C31.6417 18.6112 24.8312 29 12.3779 29V28.9947C8.69921 29 5.09688 27.9389 2 25.9384C2.53492 26.0033 3.07252 26.0357 3.61145 26.037C6.66008 26.0397 9.62157 25.0097 12.02 23.1131C9.12285 23.0577 6.58234 21.1556 5.69482 18.3789C6.70969 18.5759 7.75539 18.5355 8.7515 18.2614C5.59293 17.6189 3.32054 14.8245 3.32054 11.5794V11.493C4.26167 12.0208 5.31542 12.3137 6.39329 12.3461C3.4184 10.3442 2.50141 6.35924 4.29786 3.24362C7.73528 7.50261 12.8069 10.0918 18.2513 10.3658C17.7056 7.99803 18.4511 5.51689 20.21 3.85244C22.9369 1.2714 27.2256 1.40369 29.7888 4.14807C31.3052 3.84704 32.7584 3.28683 34.0883 2.49307C33.583 4.07112 32.5252 5.41159 31.1122 6.26339C32.4541 6.10409 33.7652 5.74232 35 5.19021C34.091 6.56172 32.9462 7.7564 31.6215 8.72159Z" stroke="#4AB27F" stroke-width="2.5" stroke-linejoin="round"/>
</svg>
