<svg width="35" height="29" viewBox="0 0 35 29" fill="none" xmlns="http://www.w3.org/2000/svg">
<path d="M30.6215 7.72159C30.6416 8.01453 30.6417 8.30745 30.6417 8.60308C30.6417 17.6112 23.8312 28 11.3779 28V27.9947C7.69921 28 4.09688 26.9389 1 24.9384C1.53492 25.0033 2.07252 25.0357 2.61145 25.037C5.66008 25.0397 8.62157 24.0097 11.02 22.1131C8.12285 22.0577 5.58234 20.1556 4.69482 17.3789C5.70969 17.5759 6.75539 17.5355 7.7515 17.2614C4.59293 16.6189 2.32054 13.8245 2.32054 10.5794V10.493C3.26167 11.0208 4.31542 11.3137 5.39329 11.3461C2.4184 9.3442 1.50141 5.35924 3.29786 2.24362C6.73528 6.50261 11.8069 9.09176 17.2513 9.36578C16.7056 6.99803 17.4511 4.51689 19.21 2.85244C21.9369 0.271396 26.2256 0.403693 28.7888 3.14807C30.3052 2.84704 31.7584 2.28683 33.0883 1.49307C32.583 3.07112 31.5252 4.41159 30.1122 5.26339C31.4541 5.10409 32.7652 4.74232 34 4.19021C33.091 5.56172 31.9462 6.7564 30.6215 7.72159Z" stroke="#4AB27F" stroke-linejoin="round"/>
</svg>
